HIERARCHY
ROOT Hips
{
	OFFSET 0.000000 0.000000 0.000000
	CHANNELS 6 Xposition Yposition Zposition Zrotation Yrotation Xrotation 
	JOINT LHipJoint
	{
		OFFSET 0.000000 0.000000 0.000000
		CHANNELS 3 Zrotation Yrotation Xrotation
		JOINT LeftUpLeg
		{
			OFFSET 1.363060 -1.794630 0.839290
			CHANNELS 3 Zrotation Yrotation Xrotation
			JOINT LeftLeg
			{
				OFFSET 2.448110 -6.726130 0.000000
				CHANNELS 3 Zrotation Yrotation Xrotation
				JOINT LeftFoot
				{
					OFFSET 2.562200 -7.039590 0.000000
					CHANNELS 3 Zrotation Yrotation Xrotation
					JOINT LeftToeBase
					{
						OFFSET 0.157640 -0.433110 2.322550
						CHANNELS 3 Zrotation Yrotation Xrotation
						End Site
						{
							OFFSET 0.000000 0.000000 0.000000
						}
					}
				}
			}
		}
	}
	JOINT RHipJoint
	{
		OFFSET 0.000000 0.000000 0.000000
		CHANNELS 3 Zrotation Yrotation Xrotation
		JOINT RightUpLeg
		{
			OFFSET -1.305520 -1.794630 0.839290
			CHANNELS 3 Zrotation Yrotation Xrotation
			JOINT RightLeg
			{
				OFFSET -2.542530 -6.985550 0.000000
				CHANNELS 3 Zrotation Yrotation Xrotation
				JOINT RightFoot
				{
					OFFSET -2.568260 -7.056230 0.000000
					CHANNELS 3 Zrotation Yrotation Xrotation
					JOINT RightToeBase
					{
						OFFSET -0.164730 -0.452590 2.363150
						CHANNELS 3 Zrotation Yrotation Xrotation
						End Site
						{
							OFFSET 0.000000 0.000000 0.000000
						}
					}
				}
			}
		}
	}
	JOINT LowerBack
	{
		OFFSET 0.000000 0.000000 0.000000
		CHANNELS 3 Zrotation Yrotation Xrotation
		JOINT Spine
		{
			OFFSET 0.028270 2.035590 -0.193380
			CHANNELS 3 Zrotation Yrotation Xrotation
			JOINT Spine1
			{
				OFFSET 0.056720 2.048850 -0.042750
				CHANNELS 3 Zrotation Yrotation Xrotation
				JOINT Neck
				{
					OFFSET 0.000000 0.000000 0.000000
					CHANNELS 3 Zrotation Yrotation Xrotation
					JOINT Neck1
					{
						OFFSET -0.054170 1.746240 0.172020
						CHANNELS 3 Zrotation Yrotation Xrotation
						JOINT Head
						{
							OFFSET 0.104070 1.761360 -0.123970
							CHANNELS 3 Zrotation Yrotation Xrotation
							End Site
							{
								OFFSET 0.000000 0.000000 0.000000
							}
						}
					}
				}
				JOINT LeftShoulder
				{
					OFFSET 0.000000 0.000000 0.000000
					CHANNELS 3 Zrotation Yrotation Xrotation
					JOINT LeftArm
					{
						OFFSET 3.362410 1.200890 -0.311210
						CHANNELS 3 Zrotation Yrotation Xrotation
						JOINT LeftForeArm
						{
							OFFSET 4.983000 -0.000000 -0.000000
							CHANNELS 3 Zrotation Yrotation Xrotation
							JOINT LeftHand
							{
								OFFSET 3.483560 -0.000000 -0.000000
								CHANNELS 3 Zrotation Yrotation Xrotation
								JOINT LeftFingerBase
								{
									OFFSET 0.000000 0.000000 0.000000
									CHANNELS 3 Zrotation Yrotation Xrotation
									JOINT LeftHandIndex1
									{
										OFFSET 0.715260 -0.000000 -0.000000
										CHANNELS 3 Zrotation Yrotation Xrotation
										End Site
										{
											OFFSET 0.000000 0.000000 0.000000
										}
									}
								}
								JOINT LThumb
								{
									OFFSET 0.000000 0.000000 0.000000
									CHANNELS 3 Zrotation Yrotation Xrotation
									End Site
									{
										OFFSET 0.000000 0.000000 0.000000
									}
								}
							}
						}
					}
				}
				JOINT RightShoulder
				{
					OFFSET 0.000000 0.000000 0.000000
					CHANNELS 3 Zrotation Yrotation Xrotation
					JOINT RightArm
					{
						OFFSET -3.136600 1.374050 -0.404650
						CHANNELS 3 Zrotation Yrotation Xrotation
						JOINT RightForeArm
						{
							OFFSET -5.241900 -0.000000 -0.000000
							CHANNELS 3 Zrotation Yrotation Xrotation
							JOINT RightHand
							{
								OFFSET -3.444170 -0.000000 -0.000000
								CHANNELS 3 Zrotation Yrotation Xrotation
								JOINT RightFingerBase
								{
									OFFSET 0.000000 0.000000 0.000000
									CHANNELS 3 Zrotation Yrotation Xrotation
									JOINT RightHandIndex1
									{
										OFFSET -0.622530 -0.000000 -0.000000
										CHANNELS 3 Zrotation Yrotation Xrotation
										End Site
										{
											OFFSET 0.000000 0.000000 0.000000
										}
									}
								}
								JOINT RThumb
								{
									OFFSET 0.000000 0.000000 0.000000
									CHANNELS 3 Zrotation Yrotation Xrotation
									End Site
									{
										OFFSET 0.000000 0.000000 0.000000
									}
								}
							}
						}
					}
				}
			}
		}
	}
}
MOTION
Frames: 5
Frame Time: 0.008333
10.891820 18.040193 4.383778 -1.701628 -17.998176 9.599712 -0.881820 -2.628755 -4.055361 -10.958990 0.562078 -34.431555 -1.820789 10.641848 23.175363 -0.754308 8.870682 17.971137 0.030700 -1.131000 -3.109400 1.121142 -2.432565 4.376907 12.390176 7.244881 1.691643 -1.132889 -9.975926 31.446155 -2.413814 -7.155073 43.292534 -0.032500 1.163900 -3.199900 0.623331 6.168710 -1.056804 0.535870 7.784097 -3.793914 -2.637822 4.472115 -1.128584 -1.952708 -1.622454 -10.627430 6.873563 -2.604750 10.485802 1.542700 -0.909200 5.650200 2.352764 -7.435291 0.127206 -90.481615 21.066874 -7.824381 4.064763 -9.228437 -0.822253 -1.001574 0.560350 2.353110 17.216422 -1.872923 -0.792200 -7.125000 0.000000 0.000000 -6.408300 27.431800 2.751400 -4.073809 9.012861 1.105767 81.428400 -1.313673 35.458333 -65.107500 53.458506 -40.132730 1.625999 0.923972 -11.504574 -26.343770 -31.960928 15.831500 7.125000 0.000000 0.000000 4.952000 -65.293800 -2.431700
10.882832 18.049386 4.514182 -1.296350 -18.048718 9.327234 -0.890840 -2.585309 -3.923950 -11.564169 0.817947 -34.366030 -1.778978 10.751417 23.662265 -0.526731 8.119850 17.937150 0.031567 -1.146506 -3.151997 1.044778 -2.418864 4.207272 12.173706 7.591937 1.520372 -1.713092 -10.487845 32.794774 -2.173707 -8.678007 43.348227 -0.017723 0.606586 -1.667697 0.036640 6.151125 -0.893000 0.494645 7.776815 -3.772606 -2.554411 4.461944 -1.129539 -1.926654 -1.645684 -10.669337 6.923986 -2.644839 10.378731 1.553190 -0.926029 5.605460 2.312685 -7.469398 0.144793 -90.177038 20.629960 -8.626829 3.930994 -9.011953 -0.806100 -0.995151 0.608864 3.474015 17.353623 -1.965602 -0.839950 -7.125000 0.000000 0.000000 -6.291684 27.302049 2.719658 -4.087898 9.024446 1.116823 81.776582 -1.665389 35.474552 -64.555940 53.416201 -39.656723 1.659436 0.926964 -12.726225 -28.424291 -31.951981 17.159613 7.125000 0.000000 0.000000 2.054652 -65.793923 -0.993128
10.873844 18.058580 4.644585 -0.891072 -18.099261 9.054756 -0.899860 -2.541862 -3.792539 -12.169349 1.073815 -34.300504 -1.737167 10.860985 24.149167 -0.299154 7.369019 17.903164 0.032433 -1.162013 -3.194593 0.968413 -2.405163 4.037636 11.957235 7.938994 1.349100 -2.293296 -10.999763 34.143392 -1.933599 -10.200941 43.403919 -0.002947 0.049272 -0.135495 -0.550052 6.133541 -0.729196 0.453419 7.769534 -3.751297 -2.471001 4.451774 -1.130495 -1.900601 -1.668914 -10.711243 6.974409 -2.684927 10.271659 1.563679 -0.942858 5.560720 2.272606 -7.503504 0.162380 -89.872460 20.193047 -9.429277 3.797224 -8.795468 -0.789948 -0.988728 0.657377 4.594920 17.490824 -2.058280 -0.887700 -7.125000 0.000000 0.000000 -6.175067 27.172298 2.687915 -4.101988 9.036031 1.127878 82.124764 -2.017104 35.490770 -64.004380 53.373896 -39.180717 1.692872 0.929956 -13.947876 -30.504813 -31.943034 18.487725 7.125000 0.000000 0.000000 -0.842695 -66.294046 0.445444
10.871573 18.065866 4.774491 -0.568456 -17.927650 8.862175 -0.920622 -2.509052 -3.670272 -12.684995 1.104910 -34.160203 -1.705617 10.948344 24.556841 -0.116862 6.683635 17.660050 0.031790 -1.150346 -3.162519 0.909852 -2.371204 3.854155 11.835726 7.928888 0.984538 -2.985800 -11.527964 35.502091 -1.496443 -12.538204 43.081900 -0.027421 -0.684262 1.882769 -0.930182 6.040291 -0.599729 0.422796 7.658213 -3.740597 -2.464208 4.387114 -1.144819 -1.894613 -1.678073 -10.679544 6.994746 -2.700568 10.143283 1.572144 -0.953464 5.481516 2.237056 -7.538869 0.181209 -89.656468 19.818833 -9.949777 3.716124 -8.649693 -0.778903 -0.972378 0.693246 5.452244 17.500399 -2.180377 -0.936040 -7.125000 0.000000 0.000000 -6.164272 27.021118 2.705402 -4.119693 9.044754 1.132303 82.533380 -2.226483 35.268968 -62.883632 53.196526 -38.233615 1.714403 0.955150 -14.332313 -31.109753 -32.452995 19.143098 7.125000 0.000000 0.000000 -1.462132 -66.994838 0.775842
10.870905 18.072697 4.904278 -0.265567 -17.703025 8.688660 -0.944185 -2.478780 -3.550186 -13.179276 1.082365 -34.002059 -1.676516 11.030403 24.945607 0.054623 6.013871 17.367031 0.030787 -1.132194 -3.112625 0.855539 -2.332412 3.667370 11.736877 7.833551 0.573849 -3.705104 -12.060049 36.863196 -1.012264 -15.069796 42.669744 -0.061261 -1.459850 4.017026 -1.261019 5.928986 -0.478457 0.394702 7.522066 -3.732428 -2.475699 4.309451 -1.162334 -1.893415 -1.683874 -10.630280 7.007905 -2.710374 10.009823 1.580125 -0.962585 5.394088 2.202587 -7.574535 0.200335 -89.461617 19.459581 -10.402995 3.647593 -8.520791 -0.769077 -0.953659 0.726098 6.246668 17.479517 -2.309493 -0.984520 -7.125000 0.000000 0.000000 -6.178729 26.864823 2.734636 -4.138261 9.052793 1.135146 82.956418 -2.401894 34.990365 -61.627056 52.986924 -37.174094 1.733092 0.985643 -14.516960 -31.362566 -33.086788 19.637931 7.125000 0.000000 0.000000 -1.537976 -67.743518 0.841789
